<svg xmlns="http://www.w3.org/2000/svg" id="Layer_1" data-name="Layer 1" viewBox="0 0 384.28 282.34"><defs><style>.cls-1,.cls-2{fill:#748f6d;}.cls-2{fill-rule:evenodd;}</style></defs><path class="cls-1" d="M77.52,333.25v3.83H62.22v23H73.69v3.82H62.22v22.95h15.3v3.82H58.39V333.25Z" transform="translate(-57.86 -108.83)"></path><path class="cls-1" d="M78.05,391.17H57.86V332.72H78.05v4.89H62.75v21.9H74.23v4.88H62.75v21.89h15.3ZM58.92,390.1H77v-2.74H61.68V363.31H73.16v-2.74H61.68v-24H77V333.8H58.92Z" transform="translate(-57.86 -108.83)"></path><path class="cls-1" d="M106.23,386.81h15.31v3.82H102.41V333.25h3.82Z" transform="translate(-57.86 -108.83)"></path><path class="cls-1" d="M122.07,391.17H101.86V332.72h4.91v53.56h15.3Zm-19.13-1.07H121v-2.74H105.7V333.8h-2.76Z" transform="translate(-57.86 -108.83)"></path><path class="cls-1" d="M150.25,386.81h15.3v3.82H146.43V333.25h3.82Z" transform="translate(-57.86 -108.83)"></path><path class="cls-1" d="M166.09,391.17h-20.2V332.72h4.89v53.56h15.31ZM147,390.1H165v-2.74H149.71V333.8H147Z" transform="translate(-57.86 -108.83)"></path><path class="cls-1" d="M209.57,333.25v3.83H194.26v23h11.48v3.82H194.26v22.95h15.31v3.82H190.45V333.25Z" transform="translate(-57.86 -108.83)"></path><path class="cls-1" d="M210.1,391.17H189.9V332.72h20.2v4.89H194.79v21.9h11.49v4.88H194.79v21.89H210.1ZM191,390.1H209v-2.74h-15.3V363.31H205.2v-2.74H193.73v-24H209V333.8H191Z" transform="translate(-57.86 -108.83)"></path><path class="cls-1" d="M257.41,344.72v3.84h-3.82v-3.84a7.66,7.66,0,0,0-15.31,0v34.43a7.66,7.66,0,1,0,15.31,0V363.86h-7.66V360h11.48v19.11a11.48,11.48,0,0,1-23,0V344.72a11.48,11.48,0,0,1,23,0Z" transform="translate(-57.86 -108.83)"></path><path class="cls-1" d="M245.93,391.17a12.05,12.05,0,0,1-12-12V344.72a12,12,0,0,1,24,0v4.37h-4.89v-4.37a7.12,7.12,0,1,0-14.23,0v34.43a7.08,7.08,0,0,0,7.11,7.13,7.12,7.12,0,0,0,7.12-7.13V364.39H245.4v-4.88h12.54v19.64a12,12,0,0,1-12,12Zm0-57.37A11,11,0,0,0,235,344.72v34.43a10.94,10.94,0,0,0,21.88,0V360.57h-10.4v2.74h7.65v15.84a8.19,8.19,0,1,1-16.38,0V344.72a7.87,7.87,0,0,1,2.4-5.78,8.18,8.18,0,0,1,11.58,0,7.87,7.87,0,0,1,2.4,5.78V348h2.75v-3.3a10.93,10.93,0,0,0-10.94-10.92Z" transform="translate(-57.86 -108.83)"></path><path class="cls-1" d="M301.42,333.25v3.83h-15.3v23h11.47v3.82H286.12v22.95h15.3v3.82H282.29V333.25Z" transform="translate(-57.86 -108.83)"></path><path class="cls-1" d="M302,391.17H281.76V332.72H302v4.89H286.66v21.9h11.48v4.88H286.66v21.89H302Zm-19.12-1.07h18.06v-2.74H285.58V363.31h11.48v-2.74H285.58v-24h15.31V333.8H282.83Z" transform="translate(-57.86 -108.83)"></path><path class="cls-1" d="M330.14,344.83v45.8h-3.83V333.25h4l15.11,45.8v-45.8h3.83v57.38h-4Z" transform="translate(-57.86 -108.83)"></path><path class="cls-1" d="M349.79,391.17h-4.92l-14.2-43v43h-4.9V332.72h4.94l14.19,43v-43h4.89Zm-4.16-1.07h3.1V333.8H346v48.57l-16-48.57h-3.1v56.3h2.76V341.5Z" transform="translate(-57.86 -108.83)"></path><path class="cls-1" d="M389.45,337.08h-15.3v-3.83h19.13v4.33L378,386.81h15.3v3.82H374.15v-4.32Z" transform="translate(-57.86 -108.83)"></path><path class="cls-1" d="M393.82,391.17H373.61l0-5,15.09-48.55H373.61v-4.89h20.21l0,5-15.08,48.56h15.11Zm-19.14-1.07h18.06v-2.74H377.25l.22-.71,15.27-49.16V333.8H374.68v2.74h15.5l-.22.7L374.68,386.4Z" transform="translate(-57.86 -108.83)"></path><path class="cls-1" d="M435,375.33H424.29l-2.64,15.3h-3.86l9.82-57.38h4.06l9.83,57.38h-3.86Zm-10.07-3.83h9.42L429.64,344Z" transform="translate(-57.86 -108.83)"></path><path class="cls-1" d="M442.14,391.17h-5l-2.63-15.29h-9.81l-2.64,15.29h-5l.11-.63,9.9-57.82h5l.07.44Zm-4.05-1.07h2.77l-9.64-56.3h-3.15l-9.65,56.3h2.77l2.65-15.3h11.61ZM435,372H424.3l5.34-31.25Zm-9.4-1.06h8.14l-4.08-23.84Z" transform="translate(-57.86 -108.83)"></path><polygon class="cls-1" points="131.09 51.19 129.52 51.19 129.52 14.13 166.56 14.13 166.56 15.72 131.09 15.72 131.09 51.19"></polygon><path class="cls-1" d="M189.66,160.72h-3V122.26h38.43v3H189.66Zm-1.57-1.42h.15V123.83h35.48v-.15H188.09Z" transform="translate(-57.86 -108.83)"></path><polygon class="cls-1" points="254.76 51.19 253.18 51.19 253.18 15.72 217.72 15.72 217.72 14.13 254.76 14.13 254.76 51.19"></polygon><path class="cls-1" d="M313.32,160.72h-3V125.25H274.87v-3h38.45Zm-1.58-1.42h.17V123.68H276.28v.15h35.46Z" transform="translate(-57.86 -108.83)"></path><polygon class="cls-1" points="254.76 139.38 217.72 139.38 217.72 137.79 253.18 137.79 253.18 102.34 254.76 102.34 254.76 139.38"></polygon><path class="cls-1" d="M313.32,248.92H274.88v-3h35.47V210.46h3Zm-37-1.43h35.62V211.88h-.17v35.45H276.29Z" transform="translate(-57.86 -108.83)"></path><polygon class="cls-1" points="166.56 139.38 129.52 139.38 129.52 102.34 131.09 102.34 131.09 137.79 166.56 137.79 166.56 139.38"></polygon><path class="cls-1" d="M225.12,248.92H186.69V210.46h3v35.46h35.46Zm-37-1.43h35.63v-.16H188.24V211.88h-.15Z" transform="translate(-57.86 -108.83)"></path><path class="cls-1" d="M250,261.34l-19.95-19.95H194.2V205.55l-20-20,20-20V129.78h35.85l19.95-20,20,20H305.8v35.86l20,20-20,20v35.84H270Zm-54.22-21.51h34.91L250,259.13l19.3-19.3h34.93V204.89l19.31-19.29-19.31-19.32V131.36H269.3L250,112.05l-19.31,19.31H195.78v34.92L176.45,185.6l19.33,19.29Z" transform="translate(-57.86 -108.83)"></path><path class="cls-1" d="M250,262.34l-20.24-20.25H193.49V205.83L173.24,185.6l20.25-20.25V129.08h36.27L250,108.83l20.26,20.25h36.25v36.27l20.25,20.25-20.25,20.23v36.26H270.26Zm-55.1-21.66h35.44l.2.22L250,260.36l19.66-19.68H305.1V205.25l.2-.21,19.47-19.44L305.1,165.93V130.49H269.66l-.21-.2L250,110.82l-19.66,19.67H194.9v35.44l-.21.2L175.23,185.6l19.67,19.65ZM250,260.12l-19.59-19.59H195.07V205.18l-19.6-19.58L195.07,166V130.65h35.34L250,111.06l19.6,19.59h35.34V166l19.6,19.61-19.6,19.58v35.35H269.6Zm-53.53-21H231l.22.22,18.8,18.8,19-19h34.52V204.6l.21-.21,18.8-18.79-19-19V132.06H269l-.2-.21L250,113l-19,19H196.47v34.51l-.21.22-18.8,18.81,19,19Z" transform="translate(-57.86 -108.83)"></path><polygon class="cls-1" points="179.21 68.26 177.63 68.26 177.63 44.9 207.04 44.9 207.04 46.48 179.21 46.48 179.21 68.26"></polygon><path class="cls-1" d="M237.77,177.77h-3V153h30.82v3H237.77Zm-1.57-1.4h.16V154.6H264.2v-.14h-28Z" transform="translate(-57.86 -108.83)"></path><polygon class="cls-1" points="184.4 65.23 182.82 65.23 182.82 50.25 197.52 50.25 197.52 51.81 184.4 51.81 184.4 65.23"></polygon><path class="cls-1" d="M243,174.77h-3V158.36h16.1v3H243Zm-1.56-1.4h.16V159.92h13.13v-.14H241.39Z" transform="translate(-57.86 -108.83)"></path><polygon class="cls-1" points="197.68 103.29 182.67 103.29 182.67 88.57 184.25 88.57 184.25 101.7 197.68 101.7 197.68 103.29"></polygon><path class="cls-1" d="M256.24,212.82H239.82V196.69h3v13.14h13.43Zm-15-1.42h13.59v-.16H241.39V198.1h-.15Z" transform="translate(-57.86 -108.83)"></path><polygon class="cls-1" points="207.04 108.63 177.63 108.63 177.63 85.28 179.21 85.28 179.21 107.05 207.04 107.05 207.04 108.63"></polygon><path class="cls-1" d="M265.61,218.15H234.79V193.41h3v21.77h27.84Zm-29.41-1.41h28v-.15H236.36V194.82h-.16Z" transform="translate(-57.86 -108.83)"></path><rect class="cls-1" x="177.23" y="75.97" width="23.08" height="1.57"></rect><path class="cls-1" d="M258.87,187.08H234.39v-3h24.48Zm-23.06-1.41h21.65v-.17H235.81Z" transform="translate(-57.86 -108.83)"></path><path class="cls-2" d="M178.83,282.36v10.26a43.57,43.57,0,0,0-11.55-12.23q-5.49-3.76-9.92-3.62a3.61,3.61,0,0,0-3.21,2,16.2,16.2,0,0,0-1,2.53c-.46,1.41-.72,2.29-.79,2.64-.11.59.21.89,1,.89a.9.9,0,0,0,.63-.19l.64-.66a8.67,8.67,0,0,0,.57-.66,2.74,2.74,0,0,1,1.9-1,3.85,3.85,0,0,1,2.11.85v21a2.22,2.22,0,0,1-1.05,2.21c-.07,0-.28.08-.61.16l-1.4.31c-.7.15-1.05.53-1.05,1.13s.33.86,1,1a14.73,14.73,0,0,0,1.84,0h6.65a13.88,13.88,0,0,0,1.79,0c.67-.12,1-.45,1-1s-.35-1-1.06-1.13c-1.23-.25-1.9-.4-2-.43a2.23,2.23,0,0,1-1.06-2.25V285.8a16.71,16.71,0,0,1,4,3.15,65.93,65.93,0,0,1,4.88,5.64q5.53,7.29,6,11.62c.07.63.12,1.11.16,1.46a2.62,2.62,0,0,0,.1.61,1,1,0,0,0,1.06.75h2c.74,0,1.16-.2,1.27-.61a26.81,26.81,0,0,0,.1-3.29V282.36a2.31,2.31,0,0,1,1.06-2.25c.11,0,.77-.18,2-.42.71-.16,1.06-.54,1.06-1.13s-.33-.87-1-1a17.64,17.64,0,0,0-1.85-.05h-6.59a18.23,18.23,0,0,0-1.9.05c-.67.12-1,.45-1,1s.35,1,1.05,1.13,1.12.22,1.45.3a5.58,5.58,0,0,1,.61.17,2.2,2.2,0,0,1,1.05,2.2m26.58,24.18c0,2,.17,3.12.48,3.24s1.16,0,2.64-.42a10.11,10.11,0,0,1,1-.19l1.53-.19.9-.07c.31,0,.63,0,.95-.07a1.67,1.67,0,0,0,1.16-.56.64.64,0,0,0,0-.89,1.25,1.25,0,0,0-.9-.42,6.67,6.67,0,0,1-1.48-.48,2.23,2.23,0,0,1-1.16-1.41c0-.16-.05-1-.05-2.49V296.8a15.28,15.28,0,0,0-.32-3.71,5.77,5.77,0,0,0-2.63-3.62,9.3,9.3,0,0,0-5.12-1.18,15.51,15.51,0,0,0-5.86,1q-4.43,1.79-4.74,3.62a1.82,1.82,0,0,0,.95,2,2.2,2.2,0,0,0,2.05.24,4.38,4.38,0,0,0,1.74-1.23,9.57,9.57,0,0,0,.69-.75q.31-.37.69-.75a6.33,6.33,0,0,1,3.16-1.74,3.69,3.69,0,0,1,3.48.66,2.21,2.21,0,0,1,.84,2.4c-.31,1.1-1.28,2-2.89,2.68-.43.19-1.64.56-3.64,1.12l-1.69.47a15.89,15.89,0,0,0-4.75,2,4.71,4.71,0,0,0-2,3.57c-.24,2.29.8,4,3.12,5.17a8.34,8.34,0,0,0,3.59.76A14.72,14.72,0,0,0,205.41,306.54Zm-2.68-7.48a8,8,0,0,0,2.74-1.45,26.63,26.63,0,0,1-.21,4.36,5.84,5.84,0,0,1-2.95,4,5.7,5.7,0,0,1-2.75.66,4.2,4.2,0,0,1-2.11-.52,2.8,2.8,0,0,1-1.53-2.82,3,3,0,0,1,2-2.5,41,41,0,0,1,4.06-1.36Zm36.34-7.43a8.39,8.39,0,0,0-3-2.73,6.22,6.22,0,0,0-2.53-.52,13.83,13.83,0,0,0-7.7,2.78,7.81,7.81,0,0,1,.16-1.53,9.5,9.5,0,0,0,.16-1,.93.93,0,0,0-.58-.89,1.77,1.77,0,0,0-1.16,0,8.24,8.24,0,0,1-3.48.89,6.42,6.42,0,0,1-1,0l-1.38-.07q-1.74,0-1.74,1c0,.69.51,1.12,1.53,1.27a4.11,4.11,0,0,1,1.59.42,1.88,1.88,0,0,1,.68,1.65v11.29c0,1.16-.33,1.89-1,2.21a7.83,7.83,0,0,1-1.8.47,1.07,1.07,0,0,0-1,1.13c0,.53.34.86,1,1a14.84,14.84,0,0,0,1.85,0h7.12a15,15,0,0,0,1.85,0c.63-.12.95-.45.95-1a1.09,1.09,0,0,0-.95-1.13c-1.13-.25-1.75-.4-1.85-.43a2.4,2.4,0,0,1-1-2.25v-5.41a20.15,20.15,0,0,1,.21-3.81,4.42,4.42,0,0,1,2.37-2.92,5,5,0,0,1,2.27-.51,4.08,4.08,0,0,1,2,.42,3.71,3.71,0,0,1,2,2.59,17.19,17.19,0,0,1,.16,3.1v6.54a2.71,2.71,0,0,1-.79,2.3,13.68,13.68,0,0,1-1.38.38,1.05,1.05,0,0,0-.79,1.13c0,.53.34.86,1,1a15.36,15.36,0,0,0,1.9,0h5.53a16.25,16.25,0,0,0,1.95,0c.6-.15.9-.49.9-1a1,1,0,0,0-.79-1,5.48,5.48,0,0,1-1.48-.38,2.86,2.86,0,0,1-.79-2.4v-8.42a6.19,6.19,0,0,1,.06-1.13,3.17,3.17,0,0,1,1.52-2.26,3.62,3.62,0,0,1,2.17-.61,5.29,5.29,0,0,1,1.53.24c1.82.62,2.92,2.19,3.27,4.7a18.55,18.55,0,0,1,.16,2.45,24.79,24.79,0,0,1-1,7,18.39,18.39,0,0,1-3.26,6.3c-.5.63-1.5,1.71-3,3.25a.87.87,0,0,0-.36,1c.17.31.47.39.89.24a14.16,14.16,0,0,0,3.7-2.78c.77-.72,1.45-1.38,2-2a19.64,19.64,0,0,0,1.48-1.66q4.84-6,4.85-12.46a11.07,11.07,0,0,0-1-4.71,7.76,7.76,0,0,0-3-3.43,8.34,8.34,0,0,0-4.59-1.32A9.23,9.23,0,0,0,239.07,291.63Zm27,8.18v-6.06a9.19,9.19,0,0,1,5.38-2.17,5.25,5.25,0,0,1,1.95.38,7.22,7.22,0,0,1,4.48,6.2,5.77,5.77,0,0,1,.09.6c0,.2,0,.43,0,.68,0,3.35-1.16,5.69-3.48,7a6.66,6.66,0,0,1-3.27.71,5.87,5.87,0,0,1-2.48-.47,4.37,4.37,0,0,1-2.48-2.92A20.84,20.84,0,0,1,266.07,299.81Zm0-9.21V278.23a3.64,3.64,0,0,1,.69-2.26c.14-.16.34-.36.6-.61s.59-.54,1-.85a.7.7,0,0,0,.26-.56.58.58,0,0,0-.21-.57,1.12,1.12,0,0,0-1.47-.23L258.79,277c-.63.32-1,.65-1,1a.81.81,0,0,0,.37,1,1.48,1.48,0,0,0,1.11.14,1.75,1.75,0,0,1,.47-.05c.74,0,1.11.54,1.11,1.61v22.85a12.41,12.41,0,0,1-.16,2.09c-.11.65-.21,1.2-.31,1.67a6.65,6.65,0,0,1-.32,1.08c-.11.25-.16.38-.16.38,0,.53.39.75,1.16.66a5.37,5.37,0,0,0,1.42-.76,3.4,3.4,0,0,1,1.38-.56,14.4,14.4,0,0,1,3.48.8,14.73,14.73,0,0,0,3.58.7,12.25,12.25,0,0,0,4.75-.7,11.24,11.24,0,0,0,7.7-10.73,10,10,0,0,0-.42-2.86,9.21,9.21,0,0,0-6.17-6.35,9.62,9.62,0,0,0-3.27-.57A15.75,15.75,0,0,0,266.07,290.6Zm22.84-8.7a2.68,2.68,0,0,0,1,2.11,3.65,3.65,0,0,0,4.74-.05,2.77,2.77,0,0,0,1-2.11,2.7,2.7,0,0,0-1-2.12,3.55,3.55,0,0,0-2.4-.84,3.45,3.45,0,0,0-2.34.84,2.76,2.76,0,0,0-1,2.17Zm0,27.13h7.7a15.48,15.48,0,0,0,1.9,0c.67-.12,1-.45,1-1s-.35-1-1.05-1.13a13.22,13.22,0,0,1-2.06-.43,2.25,2.25,0,0,1-1.06-2.25V291.11a7.86,7.86,0,0,1,.17-1.53q.15-.82.15-1a.92.92,0,0,0-.58-.89,1.77,1.77,0,0,0-1.16,0,8.2,8.2,0,0,1-3.48.89,6.36,6.36,0,0,1-1,0l-1.37-.07c-1.17,0-1.74.3-1.74,1s.51,1.12,1.53,1.27a4.05,4.05,0,0,1,1.58.42,1.85,1.85,0,0,1,.68,1.65v11.29a2.3,2.3,0,0,1-1.05,2.25c-.11,0-.78.18-2,.43-.7.15-1.05.53-1.05,1.13s.33.86,1,1a15.6,15.6,0,0,0,1.9,0Zm28.75-2.49c0,2,.16,3.12.47,3.24s1.16,0,2.64-.42a10.11,10.11,0,0,1,1-.19l1.53-.19.9-.07c.31,0,.63,0,.95-.07a1.67,1.67,0,0,0,1.16-.56.64.64,0,0,0,0-.89,1.25,1.25,0,0,0-.9-.42,6.49,6.49,0,0,1-1.48-.48,2.23,2.23,0,0,1-1.16-1.41c0-.16,0-1,0-2.49V296.8a15.28,15.28,0,0,0-.32-3.71,5.77,5.77,0,0,0-2.63-3.62,9.3,9.3,0,0,0-5.12-1.18,15.51,15.51,0,0,0-5.86,1q-4.43,1.79-4.74,3.62a1.82,1.82,0,0,0,.95,2,2.2,2.2,0,0,0,2.05.24,4.38,4.38,0,0,0,1.74-1.23,9.57,9.57,0,0,0,.69-.75q.31-.37.69-.75a6.33,6.33,0,0,1,3.16-1.74,3.69,3.69,0,0,1,3.48.66,2.23,2.23,0,0,1,.85,2.4,4.57,4.57,0,0,1-2.9,2.68c-.43.19-1.64.56-3.64,1.12l-1.69.47a15.77,15.77,0,0,0-4.75,2,4.68,4.68,0,0,0-2,3.57c-.24,2.29.8,4,3.12,5.17a8.37,8.37,0,0,0,3.59.76A14.77,14.77,0,0,0,317.66,306.54ZM315,299.06a8,8,0,0,0,2.74-1.45,26.63,26.63,0,0,1-.21,4.36,5.84,5.84,0,0,1-2.95,4,5.7,5.7,0,0,1-2.75.66,4.2,4.2,0,0,1-2.11-.52,2.81,2.81,0,0,1-1.53-2.82,3,3,0,0,1,1.95-2.5,40,40,0,0,1,4.06-1.36Zm23.15,5.13V296a8.23,8.23,0,0,1,2-2.36,5.46,5.46,0,0,1,2.48-1.26,2.47,2.47,0,0,1,2.33.75l.15.26.48.77a1.08,1.08,0,0,0,.95.62c.74,0,1.1-.33,1.1-1v-3.11c0-1.28-.7-2-2.11-2.11-2.24-.19-4.71,1.24-7.38,4.28v-1.7a7.81,7.81,0,0,1,.16-1.53c.1-.55.16-.87.16-1a.93.93,0,0,0-.58-.89,1.77,1.77,0,0,0-1.16,0,8.24,8.24,0,0,1-3.48.89,6.52,6.52,0,0,1-1,0l-1.37-.07q-1.74,0-1.74,1c0,.69.51,1.12,1.53,1.27a4,4,0,0,1,1.58.42,1.86,1.86,0,0,1,.69,1.65v11.29a2.21,2.21,0,0,1-1.06,2.21,5.39,5.39,0,0,1-.6.16l-1.4.31c-.7.15-1.06.53-1.06,1.13s.34.86,1,1a15.48,15.48,0,0,0,1.9,0h7.75a14.62,14.62,0,0,0,1.84,0c.68-.12,1-.45,1-1s-.35-1-1.06-1.13a13.93,13.93,0,0,1-2.06-.43,2.3,2.3,0,0,1-1.05-2.25Z" transform="translate(-57.86 -108.83)"></path></svg>